<svg xmlns="http://www.w3.org/2000/svg" viewBox="0 0 78.2 55.04"><defs><style>.cls-1{fill:#ed2024;}.cls-2{fill:#fff;}</style></defs><g id="Layer_2" data-name="Layer 2"><g id="Layer_1-2" data-name="Layer 1"><path class="cls-1" d="M35.72,0h7l.3,0c2.86,0,5.72.06,8.58.17,4,.15,7.92.36,11.87.59a35.52,35.52,0,0,1,5.9.74A9.6,9.6,0,0,1,77,8.59a30,30,0,0,1,.79,4.1,32.17,32.17,0,0,1,.41,4.8c0,6,0,12.05,0,18.07A41,41,0,0,1,78,40.38a40.49,40.49,0,0,1-.94,5.9,9.61,9.61,0,0,1-7.26,7.22,30.59,30.59,0,0,1-5.65.76c-2.78.2-5.57.39-8.35.48-4.41.15-8.82.26-13.23.29s-8.9,0-13.35-.1q-3.84-.06-7.67-.26c-2.65-.13-5.31-.3-8-.53a32.41,32.41,0,0,1-4.71-.69,9.49,9.49,0,0,1-7.36-7.21,40.91,40.91,0,0,1-1.14-8C.22,35.45.14,32.68,0,29.92V25.19C.07,21.79.23,18.4.57,15a35.66,35.66,0,0,1,1-6.26A9.71,9.71,0,0,1,8.75,1.59,29.3,29.3,0,0,1,14.42.82C17.28.62,20.13.43,23,.33,26.81.2,30.64.14,34.47.05ZM31.46,39.34,52,27.54,31.46,15.74Z"/><polygon class="cls-2" points="31.46 15.74 31.46 39.34 51.97 27.54 31.46 15.74"/></g></g></svg>